<svg xmlns="http://www.w3.org/2000/svg" xmlns:xlink="http://www.w3.org/1999/xlink" width="50" height="50" viewBox="0 0 50 50">
  <defs>
    <style>
      .cls-1 {
        clip-path: url(#clip-IconRound);
      }

      .cls-2, .cls-4, .cls-7 {
        fill: #1b1b1b;
      }

      .cls-2, .cls-5 {
        stroke: #1b1b1b;
      }

      .cls-2 {
        font-size: 18px;
        font-family: SegoeUI, Segoe UI;
      }

      .cls-3, .cls-5 {
        fill: none;
      }

      .cls-3 {
        stroke: #dc7500;
      }

      .cls-6, .cls-7 {
        stroke: none;
      }

      .cls-8 {
        fill: #fff;
      }
    </style>
    <clipPath id="clip-IconRound">
      <rect width="50" height="50"/>
    </clipPath>
  </defs>
  <g id="IconRound" class="cls-1">
    <rect class="cls-8" width="50" height="50"/>
    <g id="IconRound-2" data-name="IconRound" transform="translate(9 11)">
      <text id="T" class="cls-2" transform="translate(15.482 25.483)"><tspan x="0" y="0">T</tspan></text>
      <path id="Icon_ionic-ios-add-circle" data-name="Icon ionic-ios-add-circle" class="cls-3" d="M10.483,3.375a7.108,7.108,0,1,0,7.108,7.108A7.107,7.107,0,0,0,10.483,3.375Zm3.093,7.654H11.029v2.546a.547.547,0,0,1-1.093,0V11.029H7.39a.547.547,0,1,1,0-1.093H9.936V7.39a.547.547,0,1,1,1.093,0V9.936h2.546a.547.547,0,1,1,0,1.093Z" transform="translate(-3.375 -3.375)"/>
      <g id="Group_2971" data-name="Group 2971" transform="translate(9.481 21.015)">
        <g id="Polygon_5" data-name="Polygon 5" class="cls-4" transform="matrix(0.927, -0.375, 0.375, 0.927, 0, 1.498)">
          <path class="cls-6" d="M 3.191056489944458 3.499964237213135 L 0.8090282678604126 3.499964237213135 L 2.00004243850708 1.11800742149353 L 3.191056489944458 3.499964237213135 Z"/>
          <path class="cls-7" d="M 2.00004243850708 2.236010551452637 L 1.618054151535034 2.999964237213135 L 2.382030725479126 2.999964237213135 L 2.00004243850708 2.236010551452637 M 2.00004243850708 4.291534423828125e-06 L 4.000082492828369 3.999964237213135 L 2.384185791015625e-06 3.999964237213135 L 2.00004243850708 4.291534423828125e-06 Z"/>
        </g>
        <g id="Polygon_9" data-name="Polygon 9" class="cls-4" transform="translate(17.896 0) rotate(22)">
          <path class="cls-6" d="M 3.190870523452759 3.499903917312622 L 0.8090168237686157 3.499903917312622 L 1.999943614006042 1.118038415908813 L 3.190870523452759 3.499903917312622 Z"/>
          <path class="cls-7" d="M 1.999943614006042 2.236083030700684 L 1.618035078048706 2.999904155731201 L 2.381852149963379 2.999904155731201 L 1.999943614006042 2.236083030700684 M 1.999943614006042 4.053115844726563e-06 L 3.999883651733398 3.999903917312622 L 3.576278686523438e-06 3.999903917312622 L 1.999943614006042 4.053115844726563e-06 Z"/>
        </g>
        <path id="Path_9281" data-name="Path 9281" class="cls-5" d="M-12678.163,3118.532s-2.888,4.883-7.414,4.883-7.236-4.883-7.236-4.883" transform="translate(12696.267 -3114.345)"/>
      </g>
    </g>
  </g>
</svg>
