<svg xmlns="http://www.w3.org/2000/svg" xmlns:xlink="http://www.w3.org/1999/xlink" width="50" height="50" viewBox="0 0 50 50">
  <defs>
    <style>
      .cls-1 {
        clip-path: url(#clip-IconShape);
      }

      .cls-2, .cls-4 {
        fill: none;
      }

      .cls-3, .cls-7 {
        fill: #fff;
      }

      .cls-4 {
        stroke: #f80;
      }

      .cls-5, .cls-6 {
        stroke: none;
      }

      .cls-6 {
        fill: #1b1b1b;
      }
    </style>
    <clipPath id="clip-IconShape">
      <rect width="50" height="50"/>
    </clipPath>
  </defs>
  <g id="IconShape" class="cls-1">
    <rect class="cls-7" width="50" height="50"/>
    <g id="IconShape-2" data-name="IconShape" transform="translate(9 8)">
      <g id="Path_9214" data-name="Path 9214" class="cls-2" transform="translate(6.334 15.541)">
        <path class="cls-5" d="M8.885,0A8.885,8.885,0,1,1,0,8.885,8.885,8.885,0,0,1,8.885,0Z"/>
        <path class="cls-6" d="M 8.88505744934082 1.499996185302734 C 4.812917709350586 1.499996185302734 1.499998092651367 4.81291675567627 1.499998092651367 8.885056495666504 C 1.499998092651367 12.95719718933105 4.812917709350586 16.27011680603027 8.88505744934082 16.27011680603027 C 12.95719718933105 16.27011680603027 16.27011680603027 12.95719718933105 16.27011680603027 8.885056495666504 C 16.27011680603027 4.81291675567627 12.95719718933105 1.499996185302734 8.88505744934082 1.499996185302734 M 8.88505744934082 -3.814697265625e-06 C 13.79213714599609 -3.814697265625e-06 17.77011680603027 3.97797679901123 17.77011680603027 8.885056495666504 C 17.77011680603027 13.79213619232178 13.79213714599609 17.77011680603027 8.88505744934082 17.77011680603027 C 3.977977752685547 17.77011680603027 -1.9073486328125e-06 13.79213619232178 -1.9073486328125e-06 8.885056495666504 C -1.9073486328125e-06 3.97797679901123 3.977977752685547 -3.814697265625e-06 8.88505744934082 -3.814697265625e-06 Z"/>
      </g>
      <g id="Polygon_4" data-name="Polygon 4" class="cls-3" transform="translate(17.427 15.427)">
        <path class="cls-5" d="M 12.90362167358398 17.25 L 1.096378326416016 17.25 L 7 2.069258689880371 L 12.90362167358398 17.25 Z"/>
        <path class="cls-6" d="M 7 4.138552665710449 L 2.192770957946777 16.5 L 11.80722999572754 16.5 L 7 4.138552665710449 M 7 0 L 14 18 L 0 18 L 7 0 Z"/>
      </g>
      <path id="Icon_ionic-ios-add-circle" data-name="Icon ionic-ios-add-circle" class="cls-4" d="M10.427,3.375a7.052,7.052,0,1,0,7.052,7.052A7.05,7.05,0,0,0,10.427,3.375Zm3.068,7.594H10.969v2.526a.542.542,0,0,1-1.085,0V10.969H7.358a.542.542,0,1,1,0-1.085H9.884V7.358a.542.542,0,1,1,1.085,0V9.884h2.526a.542.542,0,1,1,0,1.085Z" transform="translate(-3.375 -3.375)"/>
    </g>
  </g>
</svg>
