<svg xmlns="http://www.w3.org/2000/svg" xmlns:xlink="http://www.w3.org/1999/xlink" width="50" height="50" viewBox="0 0 50 50">
  <defs>
    <style>
      .cls-1 {
        clip-path: url(#clip-IconLine);
      }

      .cls-2, .cls-5 {
        fill: none;
      }

      .cls-2, .cls-4 {
        stroke: #1b1b1b;
      }

      .cls-3, .cls-4, .cls-7 {
        fill: #1b1b1b;
      }

      .cls-4 {
        font-size: 18px;
        font-family: SegoeUI, Segoe UI;
      }

      .cls-5 {
        stroke: #f80;
      }

      .cls-6, .cls-7 {
        stroke: none;
      }

      .cls-8 {
        fill: #fff;
      }
    </style>
    <clipPath id="clip-IconLine">
      <rect width="50" height="50"/>
    </clipPath>
  </defs>
  <g id="IconLine" class="cls-1">
    <rect class="cls-8" width="50" height="50"/>
    <g id="IconLine-2" data-name="IconLine" transform="translate(7.25 6.25)">
      <line id="Line_30" data-name="Line 30" class="cls-2" x2="22" transform="translate(10.25 35.25)"/>
      <g id="Polygon_7" data-name="Polygon 7" class="cls-3" transform="translate(6.75 37.75) rotate(-90)">
        <path class="cls-6" d="M 4.097875118255615 3.5 L 0.9021250009536743 3.5 L 2.5 0.9434000253677368 L 4.097875118255615 3.5 Z"/>
        <path class="cls-7" d="M 2.5 1.886800050735474 L 1.804250001907349 3 L 3.195749998092651 3 L 2.5 1.886800050735474 M 2.5 0 L 5 4 L 0 4 L 2.5 0 Z"/>
      </g>
      <text id="T" class="cls-4" transform="translate(15.75 31.75)"><tspan x="0" y="0">T</tspan></text>
      <g id="Polygon_8" data-name="Polygon 8" class="cls-3" transform="translate(35.75 32.75) rotate(90)">
        <path class="cls-6" d="M 4.097875118255615 3.5 L 0.9021250009536743 3.5 L 2.5 0.9434000253677368 L 4.097875118255615 3.5 Z"/>
        <path class="cls-7" d="M 2.5 1.886800050735474 L 1.804250001907349 3 L 3.195749998092651 3 L 2.5 1.886800050735474 M 2.5 0 L 5 4 L 0 4 L 2.5 0 Z"/>
      </g>
      <path id="Icon_ionic-ios-add-circle" data-name="Icon ionic-ios-add-circle" class="cls-5" d="M10.75,3.375a7.375,7.375,0,1,0,7.375,7.375A7.374,7.374,0,0,0,10.75,3.375Zm3.209,7.942H11.317v2.641a.567.567,0,0,1-1.135,0V11.317H7.541a.567.567,0,1,1,0-1.135h2.641V7.541a.567.567,0,1,1,1.135,0v2.641h2.641a.567.567,0,1,1,0,1.135Z" transform="translate(-3.375 -3.375)"/>
    </g>
  </g>
</svg>
