<svg xmlns="http://www.w3.org/2000/svg" width="120.957" height="114.905" viewBox="0 0 120.957 114.905">
  <g id="Logo" transform="translate(0.571 0.369)">
    <path id="Path_9264" data-name="Path 9264" d="M-8979.2,481.425s10.256-36.1,51.428-36.574,50.028,40.241,50.028,40.241" transform="translate(8995 -430.846)" fill="none" stroke="#fff" stroke-width="1"/>
    <path id="Path_9267" data-name="Path 9267" d="M0,0S14.221,39.354,54.133,39.886,108.264,0,108.264,0" transform="translate(8.974 50.72) rotate(13)" fill="none" stroke="#fff" stroke-width="1"/>
    <g id="Ellipse_1184" data-name="Ellipse 1184" transform="translate(16 7)" fill="none" stroke="#fff" stroke-width="4">
      <circle cx="50.5" cy="50.5" r="50.5" stroke="none"/>
      <circle cx="50.5" cy="50.5" r="48.5" fill="none"/>
    </g>
    <path id="Path_9279" data-name="Path 9279" d="M133.032,77.394a53.381,53.381,0,0,0-15.853-33.522A50.775,50.775,0,0,0,83.493,29.4a50.116,50.116,0,0,0-18.534,2.833,49.169,49.169,0,0,0-16.214,9.6A48.639,48.639,0,0,0,37.336,56.881a47.451,47.451,0,0,0-4.7,18.243,49.571,49.571,0,0,0,2.854,19.427A49.045,49.045,0,0,0,61.281,122.5a48.146,48.146,0,0,0,37.345.98,47.2,47.2,0,0,0,15.748-10.221A46.719,46.719,0,0,0,124.8,97.889a45.618,45.618,0,0,0,3.512-18.006c.031-1.59-1.594-1.574-1.684-.042-.1,1.286-.081,2.584-.239,3.862l-.561,3.828-.91,3.757c-.3,1.257-.826,2.442-1.212,3.675a47.568,47.568,0,0,1-50.632,30.35,48.988,48.988,0,0,1-15.855-5.028,49.725,49.725,0,0,1-13.55-10.3,48.6,48.6,0,0,1-9.333-14.669,51.52,51.52,0,0,1-3.777-17.325,49.571,49.571,0,0,1,2.57-17.852A50.838,50.838,0,0,1,91.845,26.35a48.958,48.958,0,0,1,29.8,19.619l1.51-.77A52.468,52.468,0,0,0,95.13,28.535,49.479,49.479,0,0,0,78.9,27.542a50.066,50.066,0,0,0-15.6,4.024A53.276,53.276,0,0,0,49.862,40.19a50.551,50.551,0,0,0-9.979,12.273,53.654,53.654,0,0,0-3.462,7.081l-1.258,3.728c-.428,1.237-.623,2.544-.949,3.808-.134.64-.319,1.267-.413,1.914l-.247,1.944a30.4,30.4,0,0,0-.379,3.888l-.1,3.9.287,3.886a51.643,51.643,0,0,0,3.917,14.948,51.723,51.723,0,0,0,8.368,12.881,47.047,47.047,0,0,0,11.841,9.66l1.647.977c.563.3,1.152.547,1.726.823l1.731.813a11.608,11.608,0,0,0,1.764.732l3.6,1.283,3.709.923a51.786,51.786,0,0,0,15.175.918,52.05,52.05,0,0,0,14.712-3.79,48.857,48.857,0,0,0,12.84-8.162,47.172,47.172,0,0,0,9.8-11.7c.9-1.426-.6-2.2-1.458-.845a45.352,45.352,0,0,1-9.463,11.292,47.083,47.083,0,0,1-12.39,7.875,50.411,50.411,0,0,1-14.2,3.657,50.139,50.139,0,0,1-14.65-.884l-3.577-.888-3.473-1.239a11.024,11.024,0,0,1-1.7-.705l-1.671-.785c-.554-.266-1.123-.507-1.668-.792l-1.588-.944a45.365,45.365,0,0,1-11.437-9.318,50.134,50.134,0,0,1-8.086-12.431,50.032,50.032,0,0,1-3.791-14.429l-.281-3.756.1-3.77a29.635,29.635,0,0,1,.363-3.757l.237-1.877c.089-.624.269-1.23.4-1.848.313-1.221.495-2.484.913-3.678l1.207-3.6a52.3,52.3,0,0,1,3.34-6.842,48.768,48.768,0,0,1,9.636-11.871,51.5,51.5,0,0,1,12.979-8.351,48.31,48.31,0,0,1,15.08-3.906,47.789,47.789,0,0,1,15.7.944,50.8,50.8,0,0,1,27.143,16.1c.9,1.13,2.389.66,1.5-.749A50.773,50.773,0,0,0,92.8,24.848a52.479,52.479,0,0,0-61.05,34.261,52.184,52.184,0,0,0,.892,36.4A49.931,49.931,0,0,0,89.427,126.3a48.884,48.884,0,0,0,35.83-30.682c.407-1.281.944-2.518,1.264-3.823l.953-3.912.587-3.984c.166-1.331.152-2.68.25-4.02l-1.684-.042a43.971,43.971,0,0,1-3.361,17.354,45.085,45.085,0,0,1-10.036,14.832A45.542,45.542,0,0,1,98.047,121.9a46.446,46.446,0,0,1-36.037-.918A47.362,47.362,0,0,1,37.081,94.011a47.859,47.859,0,0,1-2.768-18.769,45.764,45.764,0,0,1,4.539-17.626A46.91,46.91,0,0,1,49.878,43.069a47.478,47.478,0,0,1,15.67-9.264,48.43,48.43,0,0,1,17.9-2.727A49.1,49.1,0,0,1,115.987,45.06a51.711,51.711,0,0,1,15.362,32.376" transform="translate(-12.895 -23.609)" fill="none" stroke="#fff" stroke-width="0.5"/>
    <path id="Path_9280" data-name="Path 9280" d="M28.895,77.394A53.381,53.381,0,0,1,44.748,43.872,50.776,50.776,0,0,1,78.434,29.4a50.116,50.116,0,0,1,18.534,2.833,49.169,49.169,0,0,1,16.214,9.6,48.639,48.639,0,0,1,11.409,15.056,47.451,47.451,0,0,1,4.7,18.243,49.571,49.571,0,0,1-2.854,19.427A49.045,49.045,0,0,1,100.646,122.5a48.147,48.147,0,0,1-37.345.98,47.2,47.2,0,0,1-15.748-10.221A46.719,46.719,0,0,1,37.128,97.889a45.618,45.618,0,0,1-3.512-18.006c-.031-1.59,1.594-1.574,1.684-.042.1,1.286.081,2.584.239,3.862l.561,3.828.91,3.757c.3,1.257.826,2.442,1.212,3.675a47.569,47.569,0,0,0,50.632,30.35,48.988,48.988,0,0,0,15.855-5.028,49.725,49.725,0,0,0,13.55-10.3,48.6,48.6,0,0,0,9.333-14.669,51.52,51.52,0,0,0,3.777-17.325,49.571,49.571,0,0,0-2.57-17.852A50.838,50.838,0,0,0,70.082,26.35a48.958,48.958,0,0,0-29.8,19.619l-1.51-.77A52.468,52.468,0,0,1,66.8,28.535a49.479,49.479,0,0,1,16.233-.993,50.066,50.066,0,0,1,15.6,4.024,53.276,53.276,0,0,1,13.434,8.624,50.551,50.551,0,0,1,9.979,12.273,53.655,53.655,0,0,1,3.462,7.081l1.258,3.728c.428,1.237.623,2.544.949,3.808.134.64.319,1.267.413,1.914l.247,1.944a30.4,30.4,0,0,1,.379,3.888l.1,3.9-.287,3.886a51.642,51.642,0,0,1-3.917,14.948,51.723,51.723,0,0,1-8.368,12.881,47.047,47.047,0,0,1-11.841,9.66l-1.647.977c-.563.3-1.152.547-1.726.823l-1.731.813a11.608,11.608,0,0,1-1.764.732l-3.6,1.283-3.709.923a51.787,51.787,0,0,1-15.175.918,52.05,52.05,0,0,1-14.712-3.79,48.858,48.858,0,0,1-12.84-8.162,47.172,47.172,0,0,1-9.8-11.7c-.9-1.426.6-2.2,1.458-.845a45.352,45.352,0,0,0,9.463,11.292,47.084,47.084,0,0,0,12.39,7.875,50.411,50.411,0,0,0,14.2,3.657,50.139,50.139,0,0,0,14.65-.884l3.577-.888,3.473-1.239a11.025,11.025,0,0,0,1.7-.705l1.671-.785c.554-.266,1.123-.507,1.668-.792l1.588-.944a45.365,45.365,0,0,0,11.437-9.318A50.133,50.133,0,0,0,123.1,96.911a50.032,50.032,0,0,0,3.791-14.429l.281-3.756-.1-3.77a29.636,29.636,0,0,0-.363-3.757l-.237-1.877c-.089-.624-.269-1.23-.4-1.848-.313-1.221-.495-2.484-.913-3.678l-1.207-3.6a52.3,52.3,0,0,0-3.34-6.842,48.768,48.768,0,0,0-9.636-11.871A51.5,51.5,0,0,0,98,33.128a48.31,48.31,0,0,0-15.08-3.906,47.789,47.789,0,0,0-15.7.944,50.8,50.8,0,0,0-27.143,16.1c-.9,1.13-2.389.66-1.5-.749A50.773,50.773,0,0,1,69.13,24.848a52.479,52.479,0,0,1,61.05,34.261,52.183,52.183,0,0,1-.892,36.4A49.931,49.931,0,0,1,72.5,126.3,48.884,48.884,0,0,1,36.67,95.622c-.407-1.281-.944-2.518-1.264-3.823l-.953-3.912L33.866,83.9c-.166-1.331-.152-2.68-.25-4.02l1.684-.042a43.971,43.971,0,0,0,3.361,17.354A45.085,45.085,0,0,0,48.7,112.027,45.542,45.542,0,0,0,63.88,121.9a46.447,46.447,0,0,0,36.037-.918,47.362,47.362,0,0,0,24.929-26.971,47.859,47.859,0,0,0,2.768-18.769,45.764,45.764,0,0,0-4.539-17.626,46.909,46.909,0,0,0-11.026-14.547,47.478,47.478,0,0,0-15.67-9.264,48.43,48.43,0,0,0-17.9-2.727A49.1,49.1,0,0,0,45.94,45.06,51.711,51.711,0,0,0,30.578,77.436" transform="translate(-15.895 -17.609)" fill="none" stroke="#fff" stroke-width="0.5"/>
    <text id="My_Stamp" data-name="My Stamp" transform="translate(29 48)" fill="#fff" font-size="15" font-family="MSReferenceSansSerif, MS Reference Sans Serif"><tspan x="0" y="0">My Stamp</tspan></text>
    <text id="Maker" transform="translate(26 73)" fill="#fff" font-size="27" font-family="MSReferenceSansSerif, MS Reference Sans Serif"><tspan x="0" y="0">Maker</tspan></text>
  </g>
</svg>
